<?xml version="1.0" standalone="no"?>
<!DOCTYPE svg PUBLIC "-//W3C//DTD SVG 20010904//EN"
 "http://www.w3.org/TR/2001/REC-SVG-20010904/DTD/svg10.dtd">
<svg version="1.0" xmlns="http://www.w3.org/2000/svg"
 width="260.000000pt" height="260.000000pt" viewBox="0 0 260.000000 260.000000"
 preserveAspectRatio="xMidYMid meet">
<metadata>
Created by potrace 1.11, written by Peter Selinger 2001-2013
</metadata>
<g transform="translate(0.000000,260.000000) scale(0.100000,-0.100000)"
fill="#000000" stroke="none">
<path d="M0 1300 l0 -1300 1300 0 1300 0 0 1300 0 1300 -1300 0 -1300 0 0
-1300z m798 346 c43 -24 57 -39 79 -85 24 -47 27 -68 28 -146 0 -109 -25 -171
-86 -214 -21 -14 -38 -30 -39 -34 0 -5 27 -60 61 -123 34 -63 58 -121 55 -129
-4 -11 -23 -15 -78 -15 -40 0 -82 3 -94 6 -14 4 -38 41 -77 120 -54 107 -59
114 -87 114 l-30 0 0 -114 c0 -131 4 -126 -96 -126 -113 0 -104 -35 -104 394
0 205 3 376 7 380 4 4 98 6 208 4 200 -3 200 -3 253 -32z m430 -346 c3 -432
11 -400 -99 -400 -109 0 -99 -41 -99 396 l0 385 98 -3 97 -3 3 -375z m523 364
c74 -22 138 -87 164 -169 16 -48 20 -88 20 -200 0 -172 -16 -235 -76 -300 -62
-67 -120 -85 -299 -92 -81 -3 -159 -3 -173 1 l-27 6 0 385 0 385 168 0 c125 0
182 -4 223 -16z m509 -368 c0 -437 10 -396 -100 -396 -110 0 -100 -41 -100
396 l0 384 100 0 100 0 0 -384z"/>
<path d="M532 1408 l3 -103 39 -3 c89 -7 126 22 126 102 0 39 -6 60 -21 80
-18 23 -27 26 -85 26 l-65 0 3 -102z"/>
<path d="M1560 1295 l0 -215 40 0 c57 0 99 24 117 68 24 56 22 245 -2 296 -21
43 -62 66 -120 66 l-35 0 0 -215z"/>
</g>
</svg>
