<?xml version="1.0" standalone="no"?>
<!DOCTYPE svg PUBLIC "-//W3C//DTD SVG 20010904//EN"
 "http://www.w3.org/TR/2001/REC-SVG-20010904/DTD/svg10.dtd">
<svg version="1.0" xmlns="http://www.w3.org/2000/svg"
 width="500.000000pt" height="500.000000pt" viewBox="0 0 500.000000 500.000000"
 preserveAspectRatio="xMidYMid meet">
<metadata>
Created by potrace 1.11, written by Peter Selinger 2001-2013
</metadata>
<g transform="translate(0.000000,500.000000) scale(0.100000,-0.100000)"
fill="#000000" stroke="none">
<path d="M653 3229 c-18 -18 -19 -1459 -1 -1477 15 -15 335 -17 358 -2 12 8
16 47 18 230 l3 220 50 0 50 0 104 -214 c63 -130 112 -220 126 -230 19 -13 53
-16 196 -16 176 0 179 1 174 38 -1 6 -56 114 -121 239 -66 125 -120 230 -120
233 0 3 23 19 51 35 144 85 209 243 196 480 -15 268 -102 388 -327 450 -55 15
-118 19 -405 22 -267 4 -343 2 -352 -8z m613 -338 c59 -27 79 -73 79 -181 0
-158 -42 -198 -215 -207 l-100 -6 0 207 0 206 98 0 c73 0 107 -5 138 -19z"/>
<path d="M1982 3228 c-17 -17 -17 -1459 0 -1476 8 -8 64 -12 185 -12 160 0
173 1 183 19 14 27 14 1435 0 1462 -10 18 -23 19 -183 19 -121 0 -177 -4 -185
-12z"/>
<path d="M2622 3228 c-9 -9 -12 -187 -12 -739 0 -627 2 -728 15 -739 11 -9 89
-11 322 -7 330 4 364 9 482 63 144 65 230 195 272 409 19 95 19 455 0 550 -56
282 -184 414 -447 460 -112 19 -613 22 -632 3z m579 -356 c45 -23 59 -37 81
-82 36 -72 52 -199 46 -360 -7 -161 -28 -240 -79 -291 -44 -44 -89 -59 -181
-59 l-68 0 0 410 0 410 74 0 c61 0 83 -5 127 -28z"/>
<path d="M3960 3221 c-14 -27 -14 -1435 0 -1462 10 -18 23 -19 183 -19 121 0
177 4 185 12 17 17 17 1459 0 1476 -8 8 -64 12 -185 12 -160 0 -173 -1 -183
-19z"/>
</g>
</svg>
