<svg xmlns="http://www.w3.org/2000/svg" width="22" height="12" viewBox="0 0 22 12">
    <path fill="#40474D" fill-rule="nonzero" d="M3.89 9.5c-.69 0-1.53-.11-2.01-.3V2.08h1.15v2.51h.05c.38-.25.84-.44 1.52-.44.96 0 1.96.59 1.96 2.49v.12c0 1.82-.93 2.74-2.67 2.74zm.07-.88c.75 0 1.4-.35 1.4-1.69v-.2c0-1.25-.41-1.64-1.3-1.64-.43 0-.82.15-1.03.25v3.13c.2.07.49.15.93.15zm5.903.86c-1.71 0-2.55-.97-2.55-2.6v-.14c0-1.73 1.05-2.58 2.36-2.58 1.52 0 2.18.85 2.18 2.49v.48h-3.36c.07 1.07.62 1.45 1.6 1.45.66 0 1.14-.15 1.59-.38V9c-.35.23-.95.48-1.82.48zm-.21-4.47c-.53 0-1.08.28-1.16 1.33h2.19c0-.97-.36-1.33-1.03-1.33zm4.973 4.44c-.89 0-1.46-.36-1.46-1.33V5.14h-.72v-.9h.72V3.03h1.13v1.21h1.23v.9h-1.23v2.82c0 .43.16.59.7.59.2 0 .41-.03.59-.08v.77c-.2.1-.48.21-.96.21zm3.252.03c-.93 0-1.58-.47-1.58-1.46 0-.95.63-1.39 1.65-1.54l1.21-.14v-.39c0-.7-.31-.86-1.18-.86-.5 0-.94.07-1.25.14v-.79c.48-.19 1.03-.28 1.7-.28 1.19 0 1.88.46 1.88 1.53v3.7h-.95l-.09-.42h-.06c-.25.29-.66.51-1.33.51zm.35-.81c.37 0 .74-.13.93-.31V7.09l-.95.1c-.51.04-.78.25-.78.77 0 .49.33.71.8.71z"/>
</svg>
