<svg xmlns="http://www.w3.org/2000/svg" width="27" height="12" viewBox="0 0 27 12">
    <path fill="#808991" fill-rule="evenodd" d="M6.34 6.577c.387 0 .58.27.58.538 0 .27-.193.577-.387.731-.129.077-.258.154-.45.154h-.871l.258-1.423h.87zm15.34-2.5s0 .808.065 1.192l.128 1.346h-1.192l.548-1.346c.193-.461.451-1.192.451-1.192zM6.662 4c.29 0 .42.192.42.538 0 .347-.162.731-.613.731h-.741L5.92 4h.741zm19.354-4c.54 0 .984.467.984.967v10c0 .566-.444 1.033-.984 1.033H1.584c-.54 0-.984-.467-.984-1.033v-10c0-.5.508-.967.984-.967h24.432zM8.628 7.033c0-.533-.254-.966-.73-1.2.603-.266.92-.833.92-1.433 0-.6-.317-1.1-.92-1.3a5.015 5.015 0 0 0-1.047-.133h-1.84L3.837 9.033H6.28c.317 0 .603 0 .92-.133.825-.267 1.428-.9 1.428-1.867zm5.045-2.766l.222-1.234h-3.68l-1.175 6.1h3.808l.254-1.3h-2.348l.19-1.166h1.777l.254-1.3h-1.777l.19-1.1h2.285zm2.824 4.766l.92-4.766h1.777l.254-1.3h-4.982l-.254 1.3h1.777l-.92 4.766h1.428zm5.585 0h1.396l-.793-6.066h-1.65l-3.078 6.066h1.555l.602-1.3h1.84l.128 1.3z"/>
</svg>
