<?xml version="1.0" encoding="UTF-8"?>
<svg width="24px" height="24px" viewBox="0 0 24 24" version="1.1" xmlns="http://www.w3.org/2000/svg" xmlns:xlink="http://www.w3.org/1999/xlink">
    <!-- Generator: Sketch 52.4 (67378) - http://www.bohemiancoding.com/sketch -->
    <title>myMenu_list_exel</title>
    <desc>Created with Sketch.</desc>
    <g id="myMenu_list_exel" stroke="none" stroke-width="1" fill="none" fill-rule="evenodd">
        <path d="M19.5,20.5 L19.5,8.646 L15.502,8.646 C14.674,8.646 14.002,7.974 14.002,7.146 L14,3.5 L5.5,3.5 L5.5,20.5 L19.5,20.5 Z M17.438,6.061 L15.501,4.123 L15.502,7.146 L18.696,7.146 L17.522,6.139 C17.494,6.113 17.466,6.088 17.438,6.061 Z M18.5,5 L21,7.146 L21,20.5 C21,21.328 20.328,22 19.5,22 L5.5,22 C4.671,22 4,21.328 4,20.5 L4,3.5 C4,2.671 4.671,2 5.5,2 L15.5,2 L18.5,5 Z M13.25,15.1895 L15.47,12.9695 C15.763,12.6765 16.237,12.6765 16.53,12.9695 C16.823,13.2625 16.823,13.7375 16.53,14.0305 L13.03,17.5305 C12.884,17.6765 12.692,17.7505 12.5,17.7505 C12.308,17.7505 12.116,17.6765 11.97,17.5305 L8.47,14.0305 C8.177,13.7375 8.177,13.2625 8.47,12.9695 C8.763,12.6765 9.237,12.6765 9.53,12.9695 L11.75,15.1895 L11.75,10.0005 C11.75,9.5855 12.086,9.2505 12.5,9.2505 C12.914,9.2505 13.25,9.5855 13.25,10.0005 L13.25,15.1895 Z" id="Combined-Shape" fill="#9EA7AD"></path>
    </g>
</svg>