<?xml version="1.0" encoding="UTF-8"?>
<svg width="57px" height="48px" viewBox="0 0 57 48" version="1.1" xmlns="http://www.w3.org/2000/svg" xmlns:xlink="http://www.w3.org/1999/xlink">
    <!-- Generator: Sketch 53 (72520) - https://sketchapp.com -->
    <title>Combined Shape</title>
    <desc>Created with Sketch.</desc>
    <g id="@@시안-전체" stroke="none" stroke-width="1" fill="none" fill-rule="evenodd">
        <g id="웹-내-서재-오류페이지" transform="translate(-152.000000, -281.000000)" fill="#D1D5D9" fill-rule="nonzero">
            <path d="M180.254062,286.022543 C183.188723,283.008292 188.348099,281 193.667466,281 L203.871572,281 C206.416936,281 208.49894,282.954398 208.49894,285.420361 L208.496302,320.010649 C208.612231,321.7921 207.119748,323.195887 205.290232,323.195704 C205.118181,323.192759 204.806415,323.187599 204.387772,323.180963 C203.689907,323.169902 202.950799,323.158839 202.203315,323.148516 C201.624031,323.140515 201.062572,323.133282 200.527128,323.126999 C199.125447,323.110552 197.970285,323.101383 197.148337,323.101383 C189.353331,323.101383 183.925972,324.481803 183.098043,327.574792 L182.849963,328.501572 L177.655031,328.501572 L177.406951,327.574792 C176.579048,324.481899 171.151824,323.101383 163.358907,323.101383 C162.536959,323.101383 161.381797,323.110552 159.980116,323.126999 C159.444672,323.133282 158.883214,323.140515 158.30393,323.148516 C157.556445,323.158839 156.817338,323.169902 156.119473,323.180963 C155.700829,323.187599 155.389063,323.192759 155.195622,323.195887 C153.385785,323.195887 151.892726,321.792671 152.006054,320.091822 L152.006054,285.420361 C152.006054,282.954398 154.088059,281 156.633422,281 L166.837529,281 C172.156543,281 177.316084,283.008097 180.254062,286.022543 Z M197.148337,320.601383 C197.982238,320.601383 199.145787,320.610618 200.556461,320.627171 C201.093737,320.633475 201.656906,320.640731 202.237839,320.648754 C202.98715,320.659103 203.727926,320.67019 204.427394,320.681277 C204.847151,320.687931 205.159958,320.693108 205.311623,320.695887 C205.74247,320.695887 206.018699,320.436074 205.99894,320.091822 L205.99894,285.420361 C205.99894,284.371694 205.070332,283.5 203.871572,283.5 L193.667466,283.5 C188.423723,283.5 183.394724,285.717697 181.271378,288.685748 L180.255755,290.105403 L179.2388,288.686701 C177.110323,285.71737 172.080855,283.5 166.837529,283.5 L156.633422,283.5 C155.434662,283.5 154.506054,284.371694 154.506054,285.420361 L154.503416,320.172995 C154.486292,320.436135 154.762674,320.695887 155.174231,320.69607 C155.347286,320.693108 155.660093,320.687931 156.07985,320.681277 C156.779319,320.67019 157.520095,320.659103 158.269405,320.648754 C158.850338,320.640731 159.413508,320.633475 159.950784,320.627171 C161.361457,320.610618 162.525006,320.601383 163.358907,320.601383 C171.767721,320.601383 177.696477,321.964052 179.49493,326.001572 L181.010061,326.001572 C182.808547,321.963939 188.737488,320.601383 197.148337,320.601383 Z M172.810589,300.25 L175.567077,303.006488 L174.008985,304.56458 L171.252497,301.808091 L168.496009,304.56458 L166.937918,303.006488 L169.694406,300.25 L166.937918,297.493512 L168.496009,295.93542 L171.252497,298.691909 L174.008985,295.93542 L175.567077,297.493512 L172.810589,300.25 Z M191.224802,300.25 L193.98129,303.006488 L192.423199,304.56458 L189.666711,301.808091 L186.910223,304.56458 L185.352131,303.006488 L188.108619,300.25 L185.352131,297.493512 L186.910223,295.93542 L189.666711,298.691909 L192.423199,295.93542 L193.98129,297.493512 L191.224802,300.25 Z M187.826965,311.25 L187.826965,313.25 L173.252497,313.25 L173.252497,311.25 L187.826965,311.25 Z" id="Combined-Shape"></path>
        </g>
    </g>
</svg>