<svg xmlns="http://www.w3.org/2000/svg" width="46" height="12" viewBox="0 0 46 12">
    <path fill="#40474D" fill-rule="evenodd" d="M42.643 6.963c1.74-.072 3.218-1.278 3.218-3.455C45.86 1.313 44.33 0 42.33 0H38v12h.991V.935h3.253c1.547 0 2.573 1.062 2.573 2.573S43.791 6.1 42.244 6.1h-2.5l.032.936h1.772L44.8 12H46l-3.357-5.037zM29 12h8v-.936h-6.922v-4.75h6.79V5.38h-6.79V.935H37V0h-8v12zM23.435 0H19v12h1.011V.935h3.317c1.579 0 2.608 1.062 2.608 2.573 0 1.493-1.029 2.573-2.608 2.573h-2.332l.01.935h2.429C25.687 7.016 27 5.397 27 3.508S25.705 0 23.435 0zM11.867 0L7 12h1.177l1.176-2.95h5.392l-.368-.936H9.692l2.817-7.017L16.823 12H18L13.133 0h-1.266zM4.435 0H0v12h1.011V.935h3.317c1.579 0 2.608 1.062 2.608 2.573 0 1.493-1.03 2.573-2.608 2.573H1.981l.038.935h2.416C6.687 7.016 8 5.397 8 3.508S6.705 0 4.435 0z"/>
</svg>
