<svg xmlns="http://www.w3.org/2000/svg" viewBox="0 0 47.2 41"><title>preference</title><g id="Layer_2" data-name="Layer 2"><g id="Layer_1-2" data-name="Layer 1"><path d="M23.54,41a3.79,3.79,0,0,1-.67-.06,3.5,3.5,0,0,1-1.8-1L4,22.91a13.25,13.25,0,0,1-1.69-2.05A13.7,13.7,0,0,1,.64,17.37C.51,17,.4,16.55.31,16.13A13.44,13.44,0,0,1,0,13.61a10.94,10.94,0,0,1,0-1.28A13.41,13.41,0,0,1,.44,9.82,13.23,13.23,0,0,1,13.25,0,13.68,13.68,0,0,1,15.8.24a13.19,13.19,0,0,1,6.87,3.64l.9.89.89-.89a14.08,14.08,0,0,1,2.1-1.7A14.19,14.19,0,0,1,28.88,1,13.92,13.92,0,0,1,31.34.24c.42-.08.84-.14,1.27-.18a13.58,13.58,0,0,1,2.55,0A13.27,13.27,0,0,1,42.3,3a11.06,11.06,0,0,1,1,.91h0a13.29,13.29,0,0,1-.1,18.86L26,40a3.83,3.83,0,0,1-.51.43A3.41,3.41,0,0,1,23.54,41ZM13.25,3A10.18,10.18,0,0,0,5.79,6.2a10,10,0,0,0-2.45,4.38A10.87,10.87,0,0,0,3,12.53c0,.34,0,.67,0,1a10.82,10.82,0,0,0,.24,2c.07.33.16.65.26,1a10.73,10.73,0,0,0,1.31,2.73,11.22,11.22,0,0,0,1.32,1.6L23.19,37.85a.48.48,0,0,0,.26.14.43.43,0,0,0,.31-.06l.09-.08L41.1,20.61A10.28,10.28,0,0,0,41.19,6h0a8.53,8.53,0,0,0-.77-.7,10.23,10.23,0,0,0-5.54-2.25,10.91,10.91,0,0,0-2,0c-.32,0-.65.08-1,.14A10.74,10.74,0,0,0,30,3.76a10.27,10.27,0,0,0-1.8.94A10.75,10.75,0,0,0,26.57,6l-3,3-3-3a10.37,10.37,0,0,0-7.3-3Z"/></g></g></svg>