<svg xmlns="http://www.w3.org/2000/svg" width="24" height="24" viewBox="0 0 24 24">
    <g fill="#808991" fill-rule="evenodd">
        <path fill-opacity=".1" d="M12 2c.534 0 .968.433.968.968v3.87a.968.968 0 1 1-1.936 0v-3.87c0-.535.434-.968.968-.968z"/>
        <path fill-opacity=".7" d="M12 16.194c.534 0 .968.433.968.967v3.871a.968.968 0 1 1-1.936 0v-3.87c0-.535.434-.968.968-.968z"/>
        <path fill-opacity=".4" d="M2 12c0-.534.473-.968 1.056-.968H6.75c.583 0 1.055.434 1.055.968s-.472.968-1.055.968H3.056C2.473 12.968 2 12.534 2 12z"/>
        <path fill-opacity=".9" d="M16.194 12c0-.534.472-.968 1.055-.968h3.695c.583 0 1.056.434 1.056.968s-.473.968-1.056.968H17.25c-.583 0-1.055-.434-1.055-.968z"/>
        <path fill-opacity=".5" d="M3.428 16.968a1.036 1.036 0 0 1 .375-1.41l3.11-1.807a1.022 1.022 0 0 1 1.401.378 1.036 1.036 0 0 1-.375 1.41l-3.11 1.806a1.022 1.022 0 0 1-1.401-.377z"/>
        <path d="M15.686 9.87a1.036 1.036 0 0 1 .375-1.41l3.11-1.805a1.022 1.022 0 0 1 1.401.377 1.036 1.036 0 0 1-.375 1.41l-3.11 1.807a1.022 1.022 0 0 1-1.401-.378z"/>
        <path fill-opacity=".8" d="M20.572 16.968c-.283.493-.91.662-1.401.377l-3.11-1.806a1.036 1.036 0 0 1-.375-1.41c.283-.494.91-.663 1.401-.378l3.11 1.807c.49.285.658.916.375 1.41z"/>
        <path fill-opacity=".3" d="M7.669 9.87c-.283.495-.91.664-1.401.379l-3.11-1.807a1.036 1.036 0 0 1-.375-1.41c.283-.493.91-.662 1.401-.377l3.11 1.806c.49.285.658.916.375 1.41z"/>
        <path fill-opacity=".6" d="M7.032 20.572a1.022 1.022 0 0 1-.377-1.401l1.806-3.11c.285-.49.916-.658 1.41-.375.494.283.663.91.378 1.401l-1.807 3.11c-.285.49-.916.658-1.41.375z"/>
        <path fill-opacity=".75" d="M16.968 20.572a1.036 1.036 0 0 1-1.41-.375l-1.807-3.11a1.022 1.022 0 0 1 .378-1.401 1.036 1.036 0 0 1 1.41.375l1.806 3.11c.285.49.116 1.118-.377 1.401z"/>
        <path fill-opacity=".2" d="M9.87 8.314a1.036 1.036 0 0 1-1.41-.375l-1.805-3.11a1.022 1.022 0 0 1 .377-1.401 1.036 1.036 0 0 1 1.41.375l1.807 3.11c.285.49.116 1.118-.378 1.401z"/>
    </g>
</svg>
