<?xml version="1.0" encoding="UTF-8"?>
<svg width="24px" height="24px" viewBox="0 0 24 24" version="1.1" xmlns="http://www.w3.org/2000/svg" xmlns:xlink="http://www.w3.org/1999/xlink">
    <!-- Generator: Sketch 58 (84663) - https://sketch.com -->
    <title>icon / setting / Loading</title>
    <desc>Created with Sketch.</desc>
    <g id="icon-/-setting-/-Loading" stroke="none" stroke-width="1" fill="none" fill-rule="evenodd">
        <g id="Group" transform="translate(2.000000, 2.000000)" fill="#808991">
            <path d="M10,-2.44249065e-14 C10.5344691,-2.45230869e-14 10.9677419,0.433272823 10.9677419,0.967741935 L10.9677419,4.83870968 C10.9677419,5.37317879 10.5344691,5.80645161 10,5.80645161 C9.46553089,5.80645161 9.03225806,5.37317879 9.03225806,4.83870968 L9.03225806,0.967741935 C9.03225806,0.433272823 9.46553089,-2.43267262e-14 10,-2.44249065e-14 Z" id="Rectangle-4" fill-opacity="0.1"></path>
            <path d="M10,14.1935484 C10.5344691,14.1935484 10.9677419,14.6268212 10.9677419,15.1612903 L10.9677419,19.0322581 C10.9677419,19.5667272 10.5344691,20 10,20 C9.46553089,20 9.03225806,19.5667272 9.03225806,19.0322581 L9.03225806,15.1612903 C9.03225806,14.6268212 9.46553089,14.1935484 10,14.1935484 Z" id="Rectangle-4-Copy" fill-opacity="0.7"></path>
            <path d="M-2.44249065e-14,10 C-2.44249065e-14,9.46553089 0.472661261,9.03225806 1.05571848,9.03225806 L4.75073314,9.03225806 C5.33379035,9.03225806 5.80645161,9.46553089 5.80645161,10 C5.80645161,10.5344691 5.33379035,10.9677419 4.75073314,10.9677419 L1.05571848,10.9677419 C0.472661261,10.9677419 -2.44249065e-14,10.5344691 -2.44249065e-14,10 Z" id="Rectangle-4-Copy-2" fill-opacity="0.9"></path>
            <path d="M14.1935484,10 C14.1935484,9.46553089 14.6662096,9.03225806 15.2492669,9.03225806 L18.9442815,9.03225806 C19.5273387,9.03225806 20,9.46553089 20,10 C20,10.5344691 19.5273387,10.9677419 18.9442815,10.9677419 L15.2492669,10.9677419 C14.6662096,10.9677419 14.1935484,10.5344691 14.1935484,10 Z" id="Rectangle-4-Copy-3" fill-opacity="0.4"></path>
            <path d="M1.42792652,14.9676155 C1.14465655,14.4739381 1.31276154,13.8426752 1.80339951,13.5576504 L4.9127247,11.7513596 C5.40336267,11.4663348 6.030739,11.6354812 6.31400897,12.1291586 C6.59727893,12.6228361 6.42917395,13.254099 5.93853598,13.5391238 L2.82921078,15.3454146 C2.33857282,15.6304394 1.71119648,15.461293 1.42792652,14.9676155 Z" id="Rectangle-4-Copy-2" fill-opacity="0.8"></path>
            <path d="M13.685991,7.87084135 C13.4027211,7.3771639 13.5708261,6.74590099 14.061464,6.46087618 L17.1707892,4.65458542 C17.6614272,4.36956061 18.2888035,4.538707 18.5720735,5.03238445 C18.8553434,5.52606191 18.6872385,6.15732482 18.1966005,6.44234963 L15.0872753,8.24864039 C14.5966373,8.5336652 13.969261,8.36451881 13.685991,7.87084135 Z" id="Rectangle-4-Copy-3" fill-opacity="0.3"></path>
            <path d="M18.5720735,14.9676155 C18.2888035,15.461293 17.6614272,15.6304394 17.1707892,15.3454146 L14.061464,13.5391238 C13.5708261,13.254099 13.4027211,12.6228361 13.685991,12.1291586 C13.969261,11.6354812 14.5966373,11.4663348 15.0872753,11.7513596 L18.1966005,13.5576504 C18.6872385,13.8426752 18.8553434,14.4739381 18.5720735,14.9676155 Z" id="Rectangle-4-Copy-2" fill-opacity="0.5"></path>
            <path d="M6.22368639,7.87084135 C5.94041642,8.36451881 5.31304009,8.5336652 4.82240212,8.24864039 L1.71307692,6.44234963 C1.22243896,6.15732482 1.05433397,5.52606191 1.33760394,5.03238445 C1.6208739,4.538707 2.24825024,4.36956061 2.7388882,4.65458542 L5.8482134,6.46087618 C6.33885137,6.74590099 6.50695635,7.3771639 6.22368639,7.87084135 Z" id="Rectangle-4-Copy-3"></path>
            <path d="M5.03238445,18.5720735 C4.538707,18.2888035 4.36956061,17.6614272 4.65458542,17.1707892 L6.46087618,14.061464 C6.74590099,13.5708261 7.3771639,13.4027211 7.87084135,13.685991 C8.36451881,13.969261 8.5336652,14.5966373 8.24864039,15.0872753 L6.44234963,18.1966005 C6.15732482,18.6872385 5.52606191,18.8553434 5.03238445,18.5720735 Z" id="Rectangle-4-Copy-2" fill-opacity="0.75"></path>
            <path d="M14.9676155,18.5720735 C14.4739381,18.8553434 13.8426752,18.6872385 13.5576504,18.1966005 L11.7513596,15.0872753 C11.4663348,14.5966373 11.6354812,13.969261 12.1291586,13.685991 C12.6228361,13.4027211 13.254099,13.5708261 13.5391238,14.061464 L15.3454146,17.1707892 C15.6304394,17.6614272 15.461293,18.2888035 14.9676155,18.5720735 Z" id="Rectangle-4-Copy-2" fill-opacity="0.6"></path>
            <path d="M14.9547123,6.31400897 C14.4610349,6.59727893 13.829772,6.42917395 13.5447471,5.93853598 C13.1577017,5.2722811 12.8674177,4.77258993 12.673895,4.43946249 C12.4660197,4.08162878 12.1542069,3.54487821 11.7384564,2.82921078 C11.4534316,2.33857282 11.622578,1.71119648 12.1162554,1.42792652 C12.6099329,1.14465655 13.2411958,1.31276154 13.5262206,1.80339951 L15.3325114,4.9127247 C15.6184177,5.40488005 15.4483898,6.030739 14.9547123,6.31400897 Z" id="Rectangle-4-Copy-3" fill-opacity="0.2" transform="translate(13.535680, 3.870968) scale(-1, 1) translate(-13.535680, -3.870968) "></path>
        </g>
    </g>
</svg>