<?xml version="1.0" encoding="UTF-8"?>
<svg width="24px" height="24px" viewBox="0 0 24 24" version="1.1" xmlns="http://www.w3.org/2000/svg" xmlns:xlink="http://www.w3.org/1999/xlink">
    <!-- Generator: Sketch 57.1 (83088) - https://sketch.com -->
    <title>icon / setting / Logout</title>
    <desc>Created with Sketch.</desc>
    <g id="Symbols" stroke="none" stroke-width="1" fill="none" fill-rule="evenodd">
        <g id="icon-/-setting-/-Logout" fill="#9EA7AD">
            <path d="M4,3 L20,3 C20.5522847,3 21,3.44771525 21,4 L21,20 C21,20.5522847 20.5522847,21 20,21 L4,21 C3.44771525,21 3,20.5522847 3,20 L3,4 C3,3.44771525 3.44771525,3 4,3 Z M5,5 L5,19 L19,19 L19,5 L5,5 Z" id="Rectangle" fill-rule="nonzero"></path>
            <polygon id="Fill-1" transform="translate(10.999500, 12.250000) scale(-1, 1) rotate(90.000000) translate(-10.999500, -12.250000) " points="10 6 10 14.68 6.411 11.09 5 12.5 10.992 18.5 16.999 12.5 15.582 11.081 12 14.664 12 6"></polygon>
        </g>
    </g>
</svg>