<?xml version="1.0" encoding="UTF-8"?>
<svg width="24px" height="24px" viewBox="0 0 24 24" version="1.1" xmlns="http://www.w3.org/2000/svg" xmlns:xlink="http://www.w3.org/1999/xlink">
    <!-- Generator: Sketch 52.4 (67378) - http://www.bohemiancoding.com/sketch -->
    <title>myMenu_active</title>
    <desc>Created with Sketch.</desc>
    <g id="myMenu_active" stroke="none" stroke-width="1" fill="none" fill-rule="evenodd">
        <path d="M21.2967327,13.8517041 C21.7574608,14.2275612 21.8835452,14.8832001 21.5832,15.3997864 L19.7319989,18.6069849 C19.4321821,19.1226698 18.8055548,19.3387482 18.2386536,19.1243841 L16.3218265,18.350725 C16.009038,18.5658767 15.6805461,18.7571745 15.337589,18.923817 L15.0453069,20.9875246 C14.9468377,21.5660325 14.4445182,22.0001797 13.8480609,22.0001797 L10.1480203,22.0001797 C9.55156298,22.0001797 9.04924351,21.5660325 8.94753862,20.9667604 L8.65836388,18.9232574 C8.31898545,18.7575983 7.99101618,18.5659335 7.67594876,18.3500406 L5.75526502,19.1252532 C5.19940491,19.3475997 4.56545972,19.1253541 4.26290152,18.6049467 L2.41034991,15.3953664 C2.11322449,14.8724256 2.23976652,14.2144089 2.71057202,13.8427261 L4.3356207,12.5681023 C4.31894918,12.3700047 4.3104643,12.1848305 4.3104643,12.0000761 C4.3104643,11.8153133 4.31894991,11.6301311 4.33562289,11.4320228 L2.69934804,10.1484481 C2.23861997,9.77259097 2.11253556,9.11695203 2.41288071,8.60036573 L4.26408182,5.39316721 C4.56389864,4.87748229 5.19052643,4.66140398 5.75742762,4.87576805 L7.67425514,5.64942735 C7.98704082,5.43427843 8.31553227,5.24298165 8.65849195,5.07633711 L8.95077434,3.0126291 C9.04924367,2.43412182 9.55156307,1.99997434 10.1480203,1.99997434 L13.8480609,1.99997434 C14.4401738,1.99997434 14.9379857,2.42717463 15.0531676,3.03339348 L15.3423423,5.07689476 C15.6817208,5.24255382 16.0096901,5.43421863 16.3247575,5.65011156 L18.2454444,4.87489785 C18.8013036,4.65255415 19.4352469,4.87479863 19.7378047,5.39520548 L21.5903563,8.60478575 C21.8874816,9.12772611 21.76094,9.78574241 21.2894563,10.1579575 L19.6605084,11.4326189 C19.6771483,11.6305021 19.6856169,11.8154986 19.6856169,12.0000761 C19.6856169,12.184839 19.6771312,12.3700216 19.6604582,12.5681296 L21.2967327,13.8517041 Z M11.9980406,14.4876117 C13.3737217,14.4876117 14.4855762,13.3757572 14.4855762,12.0000761 C14.4855762,10.6243949 13.3737217,9.51254046 11.9980406,9.51254046 C10.6223595,9.51254046 9.510505,10.6243949 9.510505,12.0000761 C9.510505,13.3757572 10.6223595,14.4876117 11.9980406,14.4876117 Z" id="Fill-1" fill="#808991" fill-rule="nonzero"></path>
    </g>
</svg>