<?xml version="1.0" encoding="UTF-8"?>
<svg width="24px" height="24px" viewBox="0 0 24 24" version="1.1" xmlns="http://www.w3.org/2000/svg" xmlns:xlink="http://www.w3.org/1999/xlink">
    <!-- Generator: Sketch 52.4 (67378) - http://www.bohemiancoding.com/sketch -->
    <title>myMenu_list_notes</title>
    <desc>Created with Sketch.</desc>
    <g id="myMenu_list_notes" stroke="none" stroke-width="1" fill="none" fill-rule="evenodd">
        <path d="M19.75,19.99995 C20.164,19.99995 20.5,20.33595 20.5,20.74995 C20.5,21.16395 20.164,21.49995 19.75,21.49995 L3.75,21.49995 C3.336,21.49995 3,21.16395 3,20.74995 C3,20.33595 3.336,19.99995 3.75,19.99995 L19.75,19.99995 Z M5.832,14.13175 L5.676,16.84075 L8.366,16.66975 L15.647,9.38875 L13.098,6.86575 L5.832,14.13175 Z M16.153,3.81075 L14.158,5.80575 L16.708,8.32775 L18.689,6.34675 L16.153,3.81075 Z M4.879,18.39275 C4.682,18.39275 4.491,18.31475 4.351,18.17475 C4.198,18.02375 4.118,17.81375 4.13,17.59975 L4.351,13.76075 C4.361,13.57675 4.439,13.40275 4.569,13.27375 L15.623,2.21975 C15.916,1.92675 16.391,1.92675 16.684,2.21975 L20.28,5.81675 C20.573,6.10975 20.573,6.58375 20.28,6.87675 L9.227,17.93075 C9.098,18.05975 8.926,18.13775 8.744,18.14875 L4.927,18.39075 C4.91,18.39175 4.895,18.39275 4.879,18.39275 Z" id="Combined-Shape" fill="#9EA7AD"></path>
    </g>
</svg>