<?xml version="1.0" encoding="utf-8"?>
<svg width="94" height="79" xmlns="http://www.w3.org/2000/svg"><g fill="none" fill-rule="evenodd"><path d="M70.352 0c-10.195 0-19.4 4.418-23.348 9.937C43.048 4.418 33.844 0 23.648 0H5.885C2.627 0 .006 2.46.006 5.519v60.354C-.11 67.678 1.46 69.1 3.382 69.1c0 0 9.612-.164 14.21-.164 9.436 0 24.347 1.147 26.557 9.4h5.702c2.21-8.253 17.12-9.4 26.56-9.4 4.599 0 14.21.164 14.21.164 1.92 0 3.49-1.422 3.373-3.227V5.519c0-3.06-2.62-5.519-5.88-5.519H70.353z" fill="#E6E8EB"/><path fill="#B8BFC4" fill-rule="nonzero" d="M32.674 30.736l4.308 4.308-1.938 1.938-4.308-4.308-4.308 4.308-1.938-1.938 4.308-4.308-4.308-4.308 1.938-1.938 4.308 4.308 4.308-4.308 1.938 1.938zM68.315 35.044l-1.938 1.938-4.308-4.308-4.308 4.308-1.938-1.938 4.308-4.308-4.308-4.308 1.938-1.938 4.308 4.308 4.308-4.308 1.938 1.938-4.308 4.308zM59.685 49.981v2.741h-25.37v-2.74z"/></g></svg>
