<?xml version="1.0" encoding="utf-8"?>
<!-- Generator: Adobe Illustrator 23.0.1, SVG Export Plug-In . SVG Version: 6.00 Build 0)  -->
<svg version="1.0" id="Layer_1" xmlns="http://www.w3.org/2000/svg" xmlns:xlink="http://www.w3.org/1999/xlink" x="0px" y="0px"
	 width="72px" height="48px" viewBox="0 0 72 48" style="enable-background:new 0 0 72 48;" xml:space="preserve">
<title>categoryFilterOn</title>
<desc>Created with Sketch.</desc>
<path d="M26.8,18c0.8,1.1,1.2,2.4,1.2,4.1v4.3c0,1.7-0.4,3.1-1.2,4.2s-1.9,1.6-3.3,1.6c-1.5,0-2.6-0.5-3.4-1.6s-1.2-2.5-1.2-4.2
	v-4.3c0-1.7,0.4-3.1,1.2-4.1s1.9-1.6,3.4-1.6C24.8,16.4,26,16.9,26.8,18z M72,15v18c0,8.3-6.7,15-15,15H15C6.7,48,0,41.3,0,33V15
	C0,6.7,6.7,0,15,0h42C65.3,0,72,6.7,72,15z M33.4,22.2c0-2.9-0.9-5.3-2.8-7.1s-4.2-2.8-7.2-2.8s-5.4,0.9-7.2,2.8s-2.8,4.3-2.8,7.1
	v4.2c0,2.9,0.9,5.3,2.8,7.1s4.3,2.8,7.2,2.8c3,0,5.3-0.9,7.2-2.8s2.7-4.3,2.7-7.1v-4.2H33.4z M56.2,12.5h-5.4v14.7h-0.1l-8.6-14.7
	h-5.4V36h5.4V21.3h0.1L50.8,36h5.4V12.5z"/>
</svg>
