<?xml version="1.0" encoding="UTF-8"?>
<svg width="24px" height="24px" viewBox="0 0 24 24" version="1.1" xmlns="http://www.w3.org/2000/svg" xmlns:xlink="http://www.w3.org/1999/xlink">
    <!-- Generator: Sketch 52.4 (67378) - http://www.bohemiancoding.com/sketch -->
    <title>myMenu_list_reviews</title>
    <desc>Created with Sketch.</desc>
    <g id="myMenu_list_reviews" stroke="none" stroke-width="1" fill="none" fill-rule="evenodd">
        <path d="M20.5,16 L20.5,4.5 L3.5,4.5 L3.5,19.297 L7.039,16.348 C7.309,16.123 7.648,16 8,16 L20.5,16 Z M20.5,3 C21.328,3 22,3.671 22,4.5 L22,16 C22,16.828 21.328,17.5 20.5,17.5 L8,17.5 L3.642,21.131 C3.448,21.293 3.225,21.365 3.006,21.365 C2.488,21.365 2,20.959 2,20.362 L2,4.5 C2,3.671 2.671,3 3.5,3 L20.5,3 Z M8,11.3652 C7.447,11.3652 7,10.9182 7,10.3652 C7,9.8122 7.447,9.3652 8,9.3652 C8.552,9.3652 9,9.8122 9,10.3652 C9,10.9182 8.552,11.3652 8,11.3652 Z M12,11.3652 C11.447,11.3652 11,10.9182 11,10.3652 C11,9.8122 11.447,9.3652 12,9.3652 C12.552,9.3652 13,9.8122 13,10.3652 C13,10.9182 12.552,11.3652 12,11.3652 Z M16,11.3652 C15.447,11.3652 15,10.9182 15,10.3652 C15,9.8122 15.447,9.3652 16,9.3652 C16.552,9.3652 17,9.8122 17,10.3652 C17,10.9182 16.552,11.3652 16,11.3652 Z" id="Combined-Shape" fill="#9EA7AD"></path>
    </g>
</svg>