<?xml version="1.0" encoding="utf-8"?>
<!-- Generator: Adobe Illustrator 23.0.1, SVG Export Plug-In . SVG Version: 6.00 Build 0)  -->
<svg version="1.0" id="Layer_1" xmlns="http://www.w3.org/2000/svg" xmlns:xlink="http://www.w3.org/1999/xlink" x="0px" y="0px"
	 width="12px" height="48px" viewBox="0 0 12 48" style="enable-background:new 0 0 12 48;" xml:space="preserve">
<title>3Dots</title>
<desc>Created with Sketch.</desc>
<path d="M0,6c0-3.3,2.7-6,6-6s6,2.7,6,6s-2.7,6-6,6S0,9.3,0,6z M6,36c-3.3,0-6,2.7-6,6s2.7,6,6,6s6-2.7,6-6S9.3,36,6,36z M6,18
	c-3.3,0-6,2.7-6,6s2.7,6,6,6s6-2.7,6-6S9.3,18,6,18z"/>
</svg>
